<svg xmlns="http://www.w3.org/2000/svg" xmlns:xlink="http://www.w3.org/1999/xlink" width="1080" zoomAndPan="magnify" viewBox="0 0 810 1012.49997" height="1350" preserveAspectRatio="xMidYMid meet" version="1.0"><defs><clipPath id="1405258f20"><path d="M 250.898438 97.488281 L 559.167969 97.488281 L 559.167969 528.699219 L 250.898438 528.699219 Z M 250.898438 97.488281 " clip-rule="nonzero"/></clipPath><clipPath id="3a09071e57"><path d="M 528.316406 128.328125 L 528.316406 498.292969 L 281.730469 498.140625 L 519.90625 434.464844 L 503.957031 375.214844 L 465.777344 385.40625 C 467.285156 376.625 466.855469 367.632812 464.554688 359.027344 C 457.328125 331.992188 432.828125 313.316406 405.03125 313.316406 C 404.253906 313.316406 403.488281 313.332031 402.710938 313.355469 C 398.089844 313.523438 393.527344 314.199219 389.0625 315.421875 C 356.179688 324.238281 336.648438 358.042969 345.46875 390.953125 C 347.769531 399.5 351.890625 407.464844 357.550781 414.273438 L 281.707031 434.488281 L 281.707031 128.328125 Z M 250.898438 97.488281 L 250.898438 529.121094 L 559.136719 529.121094 L 559.136719 97.488281 Z M 250.898438 97.488281 " clip-rule="nonzero"/></clipPath><clipPath id="9cc9ad9936"><path d="M 528.316406 128.328125 L 528.316406 498.292969 L 281.730469 498.140625 L 519.90625 434.464844 L 503.957031 375.214844 L 465.777344 385.40625 C 467.285156 376.625 466.855469 367.632812 464.554688 359.027344 C 457.328125 331.992188 432.828125 313.316406 405.03125 313.316406 C 404.253906 313.316406 403.488281 313.332031 402.710938 313.355469 C 398.089844 313.523438 393.527344 314.199219 389.0625 315.421875 C 356.179688 324.238281 336.648438 358.042969 345.46875 390.953125 C 347.769531 399.5 351.890625 407.464844 357.550781 414.273438 L 281.707031 434.488281 L 281.707031 128.328125 Z M 250.898438 97.488281 L 250.898438 529.121094 L 559.136719 529.121094 L 559.136719 97.488281 Z M 250.898438 97.488281 " clip-rule="nonzero"/></clipPath></defs><path fill="#004877" d="M 152.125 588.132812 L 152.125 686.121094 L 169.226562 686.121094 L 169.226562 709.65625 L 128.625 709.65625 L 128.625 588.132812 Z M 152.125 588.132812 " fill-opacity="1" fill-rule="nonzero"/><path fill="#004877" d="M 166.210938 686.121094 L 192.414062 686.121094 L 192.414062 709.65625 L 166.210938 709.65625 Z M 166.210938 686.121094 " fill-opacity="1" fill-rule="nonzero"/><path fill="#004877" d="M 262.535156 709.65625 L 189.421875 709.65625 L 189.421875 686.121094 L 212.796875 686.121094 L 212.796875 623.667969 L 236.296875 623.667969 L 236.296875 686.121094 L 262.535156 686.121094 Z M 209.9375 746.820312 C 206.632812 746.820312 203.734375 745.84375 201.234375 743.898438 C 198.75 741.945312 197.511719 739.128906 197.511719 735.4375 C 197.511719 732.03125 198.710938 729.300781 201.109375 727.253906 C 203.511719 725.199219 206.445312 724.179688 209.9375 724.179688 C 213.445312 724.179688 216.382812 725.199219 218.765625 727.253906 C 221.164062 729.300781 222.363281 732.03125 222.363281 735.4375 C 222.363281 739.128906 221.109375 741.945312 218.613281 743.898438 C 216.128906 745.84375 213.238281 746.820312 209.9375 746.820312 Z M 240.511719 746.820312 C 237.207031 746.820312 234.304688 745.84375 231.808594 743.898438 C 229.300781 741.945312 228.054688 739.128906 228.054688 735.4375 C 228.054688 732.03125 229.269531 729.300781 231.714844 727.253906 C 234.175781 725.199219 237.105469 724.179688 240.511719 724.179688 C 244.09375 724.179688 247.0625 725.199219 249.402344 727.253906 C 251.753906 729.300781 252.9375 732.03125 252.9375 735.4375 C 252.9375 739.128906 251.683594 741.945312 249.183594 743.898438 C 246.679688 745.84375 243.789062 746.820312 240.511719 746.820312 Z M 240.511719 746.820312 " fill-opacity="1" fill-rule="nonzero"/><path fill="#004877" d="M 259.511719 686.121094 L 285.71875 686.121094 L 285.71875 709.65625 L 259.511719 709.65625 Z M 259.511719 686.121094 " fill-opacity="1" fill-rule="nonzero"/><path fill="#004877" d="M 330.0625 609.113281 C 326.753906 609.113281 323.855469 608.144531 321.355469 606.191406 C 318.875 604.246094 317.636719 601.421875 317.636719 597.730469 C 317.636719 594.347656 318.820312 591.632812 321.203125 589.578125 C 323.601562 587.53125 326.554688 586.5 330.0625 586.5 C 333.542969 586.5 336.488281 587.53125 338.890625 589.578125 C 341.289062 591.632812 342.488281 594.347656 342.488281 597.730469 C 342.488281 601.421875 341.234375 604.246094 338.734375 606.191406 C 336.25 608.144531 333.359375 609.113281 330.0625 609.113281 Z M 360.605469 609.113281 C 357.320312 609.113281 354.429688 608.144531 351.929688 606.191406 C 349.421875 604.246094 348.179688 601.421875 348.179688 597.730469 C 348.179688 594.347656 349.394531 591.632812 351.839844 589.578125 C 354.296875 587.53125 357.21875 586.5 360.605469 586.5 C 364.210938 586.5 367.1875 587.53125 369.523438 589.578125 C 371.875 591.632812 373.0625 594.347656 373.0625 597.730469 C 373.0625 601.421875 371.808594 604.246094 369.308594 606.191406 C 366.800781 608.144531 363.902344 609.113281 360.605469 609.113281 Z M 370.507812 623.667969 L 370.507812 686.121094 L 387.425781 686.121094 L 387.425781 709.65625 L 369 709.65625 C 364.710938 709.65625 360.144531 709.65625 355.28125 709.65625 C 350.4375 709.65625 345.878906 709.65625 341.59375 709.65625 L 282.726562 709.65625 L 282.726562 686.121094 L 299.058594 686.121094 C 296.242188 680.335938 294.84375 673.953125 294.84375 666.953125 L 294.84375 666.800781 C 294.84375 658.109375 296.910156 650.539062 301.058594 644.09375 C 305.214844 637.65625 311.0625 632.640625 318.589844 629.050781 C 326.132812 625.464844 334.898438 623.667969 344.886719 623.667969 Z M 339.65625 686.121094 L 346.976562 686.121094 L 346.976562 647.019531 L 339.65625 647.019531 C 333.261719 647.019531 327.886719 648.742188 323.539062 652.1875 C 319.1875 655.632812 317.019531 660.507812 317.019531 666.800781 L 317.019531 666.953125 C 317.019531 672.945312 319.1875 677.644531 323.539062 681.042969 C 327.886719 684.429688 333.261719 686.121094 339.65625 686.121094 Z M 339.65625 686.121094 " fill-opacity="1" fill-rule="nonzero"/><path fill="#004877" d="M 384.414062 686.121094 L 410.621094 686.121094 L 410.621094 709.65625 L 384.414062 709.65625 Z M 384.414062 686.121094 " fill-opacity="1" fill-rule="nonzero"/><path fill="#004877" d="M 480.738281 709.65625 L 407.628906 709.65625 L 407.628906 686.121094 L 431.003906 686.121094 L 431.003906 623.667969 L 454.503906 623.667969 L 454.503906 686.121094 L 480.738281 686.121094 Z M 428.144531 746.820312 C 424.835938 746.820312 421.9375 745.84375 419.4375 743.898438 C 416.953125 741.945312 415.714844 739.128906 415.714844 735.4375 C 415.714844 732.03125 416.917969 729.300781 419.316406 727.253906 C 421.714844 725.199219 424.652344 724.179688 428.144531 724.179688 C 431.648438 724.179688 434.585938 725.199219 436.96875 727.253906 C 439.371094 729.300781 440.570312 732.03125 440.570312 735.4375 C 440.570312 739.128906 439.316406 741.945312 436.816406 743.898438 C 434.332031 745.84375 431.441406 746.820312 428.144531 746.820312 Z M 458.714844 746.820312 C 455.410156 746.820312 452.511719 745.84375 450.011719 743.898438 C 447.503906 741.945312 446.257812 739.128906 446.257812 735.4375 C 446.257812 732.03125 447.472656 729.300781 449.917969 727.253906 C 452.378906 725.199219 455.308594 724.179688 458.714844 724.179688 C 462.300781 724.179688 465.269531 725.199219 467.605469 727.253906 C 469.957031 729.300781 471.140625 732.03125 471.140625 735.4375 C 471.140625 739.128906 469.890625 741.945312 467.390625 743.898438 C 464.882812 745.84375 461.992188 746.820312 458.714844 746.820312 Z M 458.714844 746.820312 " fill-opacity="1" fill-rule="nonzero"/><path fill="#004877" d="M 477.714844 686.121094 L 503.921875 686.121094 L 503.921875 709.65625 L 477.714844 709.65625 Z M 477.714844 686.121094 " fill-opacity="1" fill-rule="nonzero"/><path fill="#004877" d="M 520.707031 609.113281 C 517.402344 609.113281 514.5 608.144531 512.003906 606.191406 C 509.519531 604.246094 508.28125 601.421875 508.28125 597.730469 C 508.28125 594.347656 509.464844 591.632812 511.847656 589.578125 C 514.246094 587.53125 517.199219 586.5 520.707031 586.5 C 524.191406 586.5 527.136719 587.53125 529.535156 589.578125 C 531.933594 591.632812 533.132812 594.347656 533.132812 597.730469 C 533.132812 601.421875 531.878906 604.246094 529.378906 606.191406 C 526.898438 608.144531 524.003906 609.113281 520.707031 609.113281 Z M 551.25 609.113281 C 547.964844 609.113281 545.074219 608.144531 542.574219 606.191406 C 540.070312 604.246094 538.824219 601.421875 538.824219 597.730469 C 538.824219 594.347656 540.039062 591.632812 542.484375 589.578125 C 544.945312 587.53125 547.867188 586.5 551.25 586.5 C 554.855469 586.5 557.832031 587.53125 560.167969 589.578125 C 562.523438 591.632812 563.707031 594.347656 563.707031 597.730469 C 563.707031 601.421875 562.453125 604.246094 559.953125 606.191406 C 557.445312 608.144531 554.546875 609.113281 551.25 609.113281 Z M 574.042969 709.65625 L 500.929688 709.65625 L 500.929688 686.121094 L 524.304688 686.121094 L 524.304688 623.667969 L 547.804688 623.667969 L 547.804688 686.121094 L 574.042969 686.121094 Z M 574.042969 709.65625 " fill-opacity="1" fill-rule="nonzero"/><path fill="#004877" d="M 571.019531 686.121094 L 597.222656 686.121094 L 597.222656 709.65625 L 571.019531 709.65625 Z M 571.019531 686.121094 " fill-opacity="1" fill-rule="nonzero"/><path fill="#004877" d="M 680.816406 709.65625 L 594.230469 709.65625 L 594.230469 686.121094 L 611.300781 686.121094 C 609.3125 681.527344 607.742188 677.015625 606.597656 672.582031 C 605.441406 668.136719 604.875 664.167969 604.875 660.675781 C 604.875 651.878906 606.664062 644.464844 610.257812 638.433594 C 613.839844 632.386719 618.785156 627.789062 625.082031 624.652344 C 631.371094 621.496094 638.5625 619.914062 646.644531 619.914062 C 651.148438 619.914062 656.148438 620.613281 661.621094 622.003906 C 667.113281 623.40625 672.710938 625.25 678.417969 627.542969 L 670.632812 649.261719 C 666.636719 647.378906 662.828125 645.933594 659.222656 644.925781 C 655.632812 643.925781 651.996094 643.417969 648.304688 643.417969 C 642.214844 643.417969 637.171875 645.28125 633.171875 648.988281 C 629.171875 652.679688 627.171875 657.925781 627.171875 664.707031 C 627.171875 671.707031 629.574219 678.84375 634.371094 686.121094 L 680.816406 686.121094 Z M 680.816406 709.65625 " fill-opacity="1" fill-rule="nonzero"/><path fill="#004877" d="M 246.871094 895.367188 L 222.449219 895.367188 L 211.53125 864.507812 L 162.410156 864.507812 L 151.460938 895.367188 L 127.191406 895.367188 L 172.589844 773.84375 L 201.195312 773.84375 Z M 204.179688 844.265625 L 186.800781 796.917969 L 169.578125 844.265625 Z M 204.179688 844.265625 " fill-opacity="1" fill-rule="nonzero"/><path fill="#004877" d="M 327.148438 895.367188 L 299.898438 895.367188 C 289.601562 895.367188 282.347656 893.050781 278.152344 888.414062 C 273.96875 883.761719 271.875 876.738281 271.875 867.339844 L 271.875 831.25 L 256.742188 831.25 L 256.742188 809.375 L 271.875 809.375 L 271.875 783.011719 L 295.683594 783.011719 L 295.683594 809.375 L 326.996094 809.375 L 326.996094 831.25 L 295.683594 831.25 L 295.683594 859.863281 C 295.683594 864.664062 296.882812 868.109375 299.28125 870.199219 C 301.679688 872.292969 305.417969 873.339844 310.507812 873.339844 L 327.148438 873.339844 Z M 327.148438 895.367188 " fill-opacity="1" fill-rule="nonzero"/><path fill="#004877" d="M 432.867188 855.21875 L 432.867188 857.308594 L 368.460938 857.308594 C 369.667969 862.808594 372.34375 867.429688 376.488281 871.183594 C 380.625 874.921875 385.949219 876.785156 392.453125 876.785156 C 397.742188 876.785156 402.601562 875.96875 407.03125 874.324219 C 411.476562 872.660156 415.253906 870.738281 418.351562 868.539062 L 428.6875 886.96875 C 424.394531 889.675781 419.210938 892.128906 413.121094 894.320312 C 407.03125 896.511719 399.78125 897.613281 391.375 897.613281 C 381.796875 897.613281 373.445312 895.691406 366.308594 891.859375 C 359.171875 888.007812 353.621094 882.628906 349.667969 875.738281 C 345.730469 868.847656 343.761719 860.863281 343.761719 851.773438 L 343.761719 851.617188 C 343.761719 842.632812 345.609375 834.71875 349.300781 827.867188 C 352.992188 821.023438 358.171875 815.652344 364.863281 811.777344 C 371.566406 807.882812 379.457031 805.929688 388.546875 805.929688 C 397.726562 805.929688 405.648438 807.898438 412.292969 811.839844 C 418.933594 815.777344 424.019531 821.421875 427.546875 828.757812 C 431.09375 836.105469 432.867188 844.925781 432.867188 855.21875 Z M 388.394531 825.25 C 383.203125 825.25 378.886719 826.90625 375.445312 830.207031 C 372 833.488281 369.722656 837.636719 368.617188 842.632812 L 408.632812 842.632812 C 407.722656 837.636719 405.570312 833.488281 402.171875 830.207031 C 398.789062 826.90625 394.191406 825.25 388.394531 825.25 Z M 388.394531 825.25 " fill-opacity="1" fill-rule="nonzero"/><path fill="#004877" d="M 536.359375 814.144531 L 536.359375 928.316406 L 512.554688 928.316406 L 512.554688 895.214844 C 509.945312 895.90625 507.292969 896.480469 504.585938 896.9375 C 501.894531 897.382812 499.113281 897.613281 496.222656 897.613281 C 486.539062 897.613281 478.203125 895.644531 471.214844 891.707031 C 464.21875 887.753906 458.851562 882.320312 455.097656 875.429688 C 451.359375 868.539062 449.5 860.753906 449.5 852.078125 L 449.5 851.773438 C 449.5 842.972656 451.445312 835.128906 455.34375 828.234375 C 459.234375 821.34375 464.757812 815.914062 471.890625 811.929688 C 479.027344 807.929688 487.484375 805.929688 497.265625 805.929688 C 505.265625 805.929688 512.476562 806.785156 518.921875 808.484375 C 525.355469 810.167969 531.171875 812.054688 536.359375 814.144531 Z M 497.265625 876.355469 C 499.867188 876.355469 502.496094 876.109375 505.140625 875.613281 C 507.785156 875.109375 510.253906 874.554688 512.554688 873.953125 L 512.554688 829.003906 C 507.957031 827.796875 502.863281 827.191406 497.265625 827.191406 C 489.46875 827.191406 483.558594 829.542969 479.519531 834.234375 C 475.476562 838.933594 473.460938 844.78125 473.460938 851.773438 L 473.460938 852.078125 C 473.460938 858.972656 475.476562 864.746094 479.519531 869.402344 C 483.558594 874.039062 489.46875 876.355469 497.265625 876.355469 Z M 497.265625 876.355469 " fill-opacity="1" fill-rule="nonzero"/><path fill="#004877" d="M 568.714844 798.117188 C 565.515625 798.117188 562.730469 797.277344 560.378906 795.59375 C 558.039062 793.894531 556.871094 791.242188 556.871094 787.625 C 556.871094 784.449219 557.988281 781.933594 560.222656 780.085938 C 562.476562 778.226562 565.308594 777.289062 568.714844 777.289062 C 572.195312 777.289062 575.035156 778.226562 577.234375 780.085938 C 579.425781 781.933594 580.523438 784.449219 580.523438 787.625 C 580.523438 791.242188 579.371094 793.894531 577.078125 795.59375 C 574.78125 797.277344 571.988281 798.117188 568.714844 798.117188 Z M 580.679688 895.367188 L 556.871094 895.367188 L 556.871094 809.375 L 580.679688 809.375 Z M 580.679688 895.367188 " fill-opacity="1" fill-rule="nonzero"/><path fill="#004877" d="M 641.339844 806.363281 C 649.339844 806.363281 656.273438 807.4375 662.164062 809.59375 C 668.046875 811.746094 672.605469 815.300781 675.851562 820.238281 C 679.113281 825.183594 680.742188 831.898438 680.742188 840.386719 L 680.742188 893.582031 C 674.851562 894.875 668.363281 895.890625 661.273438 896.628906 C 654.175781 897.382812 647.683594 897.765625 641.800781 897.765625 C 633.003906 897.765625 625.410156 896.875 619.011719 895.089844 C 612.628906 893.289062 607.722656 890.335938 604.277344 886.230469 C 600.832031 882.128906 599.109375 876.738281 599.109375 870.046875 L 599.109375 869.738281 C 599.109375 860.554688 602.554688 853.816406 609.445312 849.527344 C 616.335938 845.21875 625.671875 843.066406 637.464844 843.066406 C 640.640625 843.066406 643.800781 843.148438 646.9375 843.3125 C 650.089844 843.457031 653.429688 843.773438 656.933594 844.265625 L 656.933594 841.125 C 656.933594 835.734375 655.128906 831.941406 651.523438 829.742188 C 647.929688 827.550781 642.847656 826.453125 636.265625 826.453125 C 631.960938 826.453125 627.007812 826.976562 621.410156 828.019531 C 615.828125 829.066406 610.691406 830.542969 606 832.449219 L 611.230469 811.316406 C 613.421875 810.414062 616.164062 809.59375 619.472656 808.855469 C 622.769531 808.101562 626.339844 807.492188 630.175781 807.039062 C 634.027344 806.59375 637.75 806.363281 641.339844 806.363281 Z M 623.53125 868.539062 L 623.53125 868.847656 C 623.53125 872.539062 625.199219 875.183594 628.546875 876.785156 C 631.882812 878.382812 636.605469 879.183594 642.695312 879.183594 C 646.894531 879.183594 651.644531 878.785156 656.933594 877.984375 L 656.933594 859.402344 C 654.535156 859.015625 652.03125 858.71875 649.429688 858.507812 C 646.824219 858.308594 644.578125 858.203125 642.695312 858.203125 C 636.703125 858.203125 632.007812 858.988281 628.605469 860.539062 C 625.222656 862.078125 623.53125 864.746094 623.53125 868.539062 Z M 623.53125 868.539062 " fill-opacity="1" fill-rule="nonzero"/><g clip-path="url(#1405258f20)"><g clip-path="url(#3a09071e57)"><g clip-path="url(#9cc9ad9936)"><path fill="#004877" d="M 250.898438 97.488281 L 559.128906 97.488281 L 559.128906 528.644531 L 250.898438 528.644531 Z M 250.898438 97.488281 " fill-opacity="1" fill-rule="nonzero"/></g></g></g></svg>
