<svg xmlns="http://www.w3.org/2000/svg" xmlns:xlink="http://www.w3.org/1999/xlink" width="508" zoomAndPan="magnify" viewBox="0 0 381 472.499986" height="630" preserveAspectRatio="xMidYMid meet" version="1.0"><defs><g/><clipPath id="bbc3ccc202"><path d="M 113.695312 0 L 270.890625 0 L 270.890625 219.585938 L 113.695312 219.585938 Z M 113.695312 0 " clip-rule="nonzero"/></clipPath><clipPath id="8ca761ce05"><path d="M 254.628906 15.664062 L 254.628906 203.558594 L 129.363281 203.480469 L 250.355469 171.140625 L 242.253906 141.050781 L 222.855469 146.226562 C 223.625 141.765625 223.40625 137.199219 222.238281 132.828125 C 218.566406 119.097656 206.121094 109.613281 192 109.613281 C 191.605469 109.613281 191.214844 109.621094 190.820312 109.632812 C 188.472656 109.71875 186.15625 110.0625 183.886719 110.683594 C 167.183594 115.160156 157.261719 132.328125 161.742188 149.042969 C 162.910156 153.382812 165 157.429688 167.878906 160.886719 L 129.351562 171.152344 L 129.351562 15.664062 Z M 113.695312 0 L 113.695312 219.214844 L 270.28125 219.214844 L 270.28125 0 Z M 113.695312 0 " clip-rule="nonzero"/></clipPath><clipPath id="3e78660165"><path d="M 0.695312 0 L 157.394531 0 L 157.394531 219 L 0.695312 219 Z M 0.695312 0 " clip-rule="nonzero"/></clipPath><clipPath id="da8124b6ff"><path d="M 141.628906 15.664062 L 141.628906 203.558594 L 16.363281 203.480469 L 137.355469 171.140625 L 129.253906 141.050781 L 109.855469 146.226562 C 110.625 141.765625 110.40625 137.199219 109.238281 132.828125 C 105.566406 119.097656 93.121094 109.613281 79 109.613281 C 78.605469 109.613281 78.214844 109.621094 77.820312 109.632812 C 75.472656 109.71875 73.15625 110.0625 70.886719 110.683594 C 54.183594 115.160156 44.261719 132.328125 48.742188 149.042969 C 49.910156 153.382812 52 157.429688 54.878906 160.886719 L 16.351562 171.152344 L 16.351562 15.664062 Z M 0.695312 0 L 0.695312 219.214844 L 157.28125 219.214844 L 157.28125 0 Z M 0.695312 0 " clip-rule="nonzero"/></clipPath><clipPath id="e7c1b32737"><rect x="0" width="158" y="0" height="220"/></clipPath></defs><g fill="#f0f0f0" fill-opacity="1"><g transform="translate(44.503059, 310.90327)"><g><path d="M 17.875 -61.71875 L 17.875 -11.953125 L 26.5625 -11.953125 L 26.5625 0 L 5.9375 0 L 5.9375 -61.71875 Z M 17.875 -61.71875 "/></g></g></g><g fill="#f0f0f0" fill-opacity="1"><g transform="translate(69.533238, 310.90327)"><g><path d="M 13.3125 0 L 0 0 L 0 -11.953125 L 13.3125 -11.953125 Z M 13.3125 0 "/></g></g></g><g fill="#f0f0f0" fill-opacity="1"><g transform="translate(81.325568, 310.90327)"><g><path d="M 37.140625 0 L 0 0 L 0 -11.953125 L 11.875 -11.953125 L 11.875 -43.671875 L 23.8125 -43.671875 L 23.8125 -11.953125 L 37.140625 -11.953125 Z M 10.421875 18.875 C 8.742188 18.875 7.269531 18.378906 6 17.390625 C 4.738281 16.398438 4.109375 14.96875 4.109375 13.09375 C 4.109375 11.363281 4.71875 9.976562 5.9375 8.9375 C 7.15625 7.894531 8.648438 7.375 10.421875 7.375 C 12.203125 7.375 13.695312 7.894531 14.90625 8.9375 C 16.125 9.976562 16.734375 11.363281 16.734375 13.09375 C 16.734375 14.96875 16.097656 16.398438 14.828125 17.390625 C 13.566406 18.378906 12.097656 18.875 10.421875 18.875 Z M 25.953125 18.875 C 24.273438 18.875 22.800781 18.378906 21.53125 17.390625 C 20.257812 16.398438 19.625 14.96875 19.625 13.09375 C 19.625 11.363281 20.242188 9.976562 21.484375 8.9375 C 22.734375 7.894531 24.222656 7.375 25.953125 7.375 C 27.773438 7.375 29.28125 7.894531 30.46875 8.9375 C 31.664062 9.976562 32.265625 11.363281 32.265625 13.09375 C 32.265625 14.96875 31.628906 16.398438 30.359375 17.390625 C 29.085938 18.378906 27.617188 18.875 25.953125 18.875 Z M 25.953125 18.875 "/></g></g></g><g fill="#f0f0f0" fill-opacity="1"><g transform="translate(116.930798, 310.90327)"><g><path d="M 13.3125 0 L 0 0 L 0 -11.953125 L 13.3125 -11.953125 Z M 13.3125 0 "/></g></g></g><g fill="#f0f0f0" fill-opacity="1"><g transform="translate(128.723128, 310.90327)"><g><path d="M 24.046875 -51.0625 C 22.367188 -51.0625 20.894531 -51.554688 19.625 -52.546875 C 18.363281 -53.535156 17.734375 -54.96875 17.734375 -56.84375 C 17.734375 -58.5625 18.335938 -59.941406 19.546875 -60.984375 C 20.765625 -62.023438 22.265625 -62.546875 24.046875 -62.546875 C 25.816406 -62.546875 27.3125 -62.023438 28.53125 -60.984375 C 29.75 -59.941406 30.359375 -58.5625 30.359375 -56.84375 C 30.359375 -54.96875 29.722656 -53.535156 28.453125 -52.546875 C 27.191406 -51.554688 25.722656 -51.0625 24.046875 -51.0625 Z M 39.5625 -51.0625 C 37.894531 -51.0625 36.425781 -51.554688 35.15625 -52.546875 C 33.882812 -53.535156 33.25 -54.96875 33.25 -56.84375 C 33.25 -58.5625 33.867188 -59.941406 35.109375 -60.984375 C 36.359375 -62.023438 37.84375 -62.546875 39.5625 -62.546875 C 41.394531 -62.546875 42.90625 -62.023438 44.09375 -60.984375 C 45.289062 -59.941406 45.890625 -58.5625 45.890625 -56.84375 C 45.890625 -54.96875 45.253906 -53.535156 43.984375 -52.546875 C 42.710938 -51.554688 41.238281 -51.0625 39.5625 -51.0625 Z M 44.59375 -43.671875 L 44.59375 -11.953125 L 53.1875 -11.953125 L 53.1875 0 L 43.828125 0 C 41.648438 0 39.328125 0 36.859375 0 C 34.398438 0 32.082031 0 29.90625 0 L 0 0 L 0 -11.953125 L 8.296875 -11.953125 C 6.867188 -14.890625 6.15625 -18.132812 6.15625 -21.6875 L 6.15625 -21.765625 C 6.15625 -26.179688 7.207031 -30.023438 9.3125 -33.296875 C 11.425781 -36.566406 14.394531 -39.113281 18.21875 -40.9375 C 22.050781 -42.757812 26.503906 -43.671875 31.578125 -43.671875 Z M 28.921875 -11.953125 L 32.640625 -11.953125 L 32.640625 -31.8125 L 28.921875 -31.8125 C 25.671875 -31.8125 22.941406 -30.9375 20.734375 -29.1875 C 18.523438 -27.4375 17.421875 -24.960938 17.421875 -21.765625 L 17.421875 -21.6875 C 17.421875 -18.644531 18.523438 -16.257812 20.734375 -14.53125 C 22.941406 -12.8125 25.671875 -11.953125 28.921875 -11.953125 Z M 28.921875 -11.953125 "/></g></g></g><g fill="#f0f0f0" fill-opacity="1"><g transform="translate(180.381152, 310.90327)"><g><path d="M 13.3125 0 L 0 0 L 0 -11.953125 L 13.3125 -11.953125 Z M 13.3125 0 "/></g></g></g><g fill="#f0f0f0" fill-opacity="1"><g transform="translate(192.173482, 310.90327)"><g><path d="M 37.140625 0 L 0 0 L 0 -11.953125 L 11.875 -11.953125 L 11.875 -43.671875 L 23.8125 -43.671875 L 23.8125 -11.953125 L 37.140625 -11.953125 Z M 10.421875 18.875 C 8.742188 18.875 7.269531 18.378906 6 17.390625 C 4.738281 16.398438 4.109375 14.96875 4.109375 13.09375 C 4.109375 11.363281 4.71875 9.976562 5.9375 8.9375 C 7.15625 7.894531 8.648438 7.375 10.421875 7.375 C 12.203125 7.375 13.695312 7.894531 14.90625 8.9375 C 16.125 9.976562 16.734375 11.363281 16.734375 13.09375 C 16.734375 14.96875 16.097656 16.398438 14.828125 17.390625 C 13.566406 18.378906 12.097656 18.875 10.421875 18.875 Z M 25.953125 18.875 C 24.273438 18.875 22.800781 18.378906 21.53125 17.390625 C 20.257812 16.398438 19.625 14.96875 19.625 13.09375 C 19.625 11.363281 20.242188 9.976562 21.484375 8.9375 C 22.734375 7.894531 24.222656 7.375 25.953125 7.375 C 27.773438 7.375 29.28125 7.894531 30.46875 8.9375 C 31.664062 9.976562 32.265625 11.363281 32.265625 13.09375 C 32.265625 14.96875 31.628906 16.398438 30.359375 17.390625 C 29.085938 18.378906 27.617188 18.875 25.953125 18.875 Z M 25.953125 18.875 "/></g></g></g><g fill="#f0f0f0" fill-opacity="1"><g transform="translate(227.778712, 310.90327)"><g><path d="M 13.3125 0 L 0 0 L 0 -11.953125 L 13.3125 -11.953125 Z M 13.3125 0 "/></g></g></g><g fill="#f0f0f0" fill-opacity="1"><g transform="translate(239.571053, 310.90327)"><g><path d="M 10.046875 -51.0625 C 8.367188 -51.0625 6.894531 -51.554688 5.625 -52.546875 C 4.363281 -53.535156 3.734375 -54.96875 3.734375 -56.84375 C 3.734375 -58.5625 4.335938 -59.941406 5.546875 -60.984375 C 6.765625 -62.023438 8.265625 -62.546875 10.046875 -62.546875 C 11.816406 -62.546875 13.3125 -62.023438 14.53125 -60.984375 C 15.75 -59.941406 16.359375 -58.5625 16.359375 -56.84375 C 16.359375 -54.96875 15.722656 -53.535156 14.453125 -52.546875 C 13.191406 -51.554688 11.722656 -51.0625 10.046875 -51.0625 Z M 25.5625 -51.0625 C 23.894531 -51.0625 22.425781 -51.554688 21.15625 -52.546875 C 19.882812 -53.535156 19.25 -54.96875 19.25 -56.84375 C 19.25 -58.5625 19.867188 -59.941406 21.109375 -60.984375 C 22.359375 -62.023438 23.84375 -62.546875 25.5625 -62.546875 C 27.394531 -62.546875 28.90625 -62.023438 30.09375 -60.984375 C 31.289062 -59.941406 31.890625 -58.5625 31.890625 -56.84375 C 31.890625 -54.96875 31.253906 -53.535156 29.984375 -52.546875 C 28.710938 -51.554688 27.238281 -51.0625 25.5625 -51.0625 Z M 37.140625 0 L 0 0 L 0 -11.953125 L 11.875 -11.953125 L 11.875 -43.671875 L 23.8125 -43.671875 L 23.8125 -11.953125 L 37.140625 -11.953125 Z M 37.140625 0 "/></g></g></g><g fill="#f0f0f0" fill-opacity="1"><g transform="translate(275.176272, 310.90327)"><g><path d="M 13.3125 0 L 0 0 L 0 -11.953125 L 13.3125 -11.953125 Z M 13.3125 0 "/></g></g></g><g fill="#f0f0f0" fill-opacity="1"><g transform="translate(286.968602, 310.90327)"><g><path d="M 43.984375 0 L 0 0 L 0 -11.953125 L 8.671875 -11.953125 C 7.660156 -14.285156 6.863281 -16.578125 6.28125 -18.828125 C 5.695312 -21.085938 5.40625 -23.101562 5.40625 -24.875 C 5.40625 -29.34375 6.316406 -33.109375 8.140625 -36.171875 C 9.960938 -39.242188 12.472656 -41.578125 15.671875 -43.171875 C 18.867188 -44.773438 22.519531 -45.578125 26.625 -45.578125 C 28.914062 -45.578125 31.453125 -45.222656 34.234375 -44.515625 C 37.023438 -43.804688 39.867188 -42.867188 42.765625 -41.703125 L 38.8125 -30.671875 C 36.78125 -31.628906 34.847656 -32.363281 33.015625 -32.875 C 31.191406 -33.382812 29.34375 -33.640625 27.46875 -33.640625 C 24.375 -33.640625 21.8125 -32.695312 19.78125 -30.8125 C 17.75 -28.9375 16.734375 -26.273438 16.734375 -22.828125 C 16.734375 -19.273438 17.953125 -15.648438 20.390625 -11.953125 L 43.984375 -11.953125 Z M 43.984375 0 "/></g></g></g><g fill="#f0f0f0" fill-opacity="1"><g transform="translate(48.881512, 405.220064)"><g><path d="M 61.859375 0 L 49.453125 0 L 43.90625 -15.671875 L 18.953125 -15.671875 L 13.390625 0 L 1.0625 0 L 24.125 -61.71875 L 38.65625 -61.71875 Z M 40.171875 -25.953125 L 31.34375 -50 L 22.59375 -25.953125 Z M 40.171875 -25.953125 "/></g></g></g><g fill="#f0f0f0" fill-opacity="1"><g transform="translate(114.005899, 405.220064)"><g><path d="M 37.515625 0 L 23.671875 0 C 18.441406 0 14.757812 -1.175781 12.625 -3.53125 C 10.5 -5.894531 9.4375 -9.460938 9.4375 -14.234375 L 9.4375 -32.5625 L 1.75 -32.5625 L 1.75 -43.671875 L 9.4375 -43.671875 L 9.4375 -57.0625 L 21.53125 -57.0625 L 21.53125 -43.671875 L 37.4375 -43.671875 L 37.4375 -32.5625 L 21.53125 -32.5625 L 21.53125 -18.03125 C 21.53125 -15.59375 22.140625 -13.84375 23.359375 -12.78125 C 24.578125 -11.71875 26.476562 -11.1875 29.0625 -11.1875 L 37.515625 -11.1875 Z M 37.515625 0 "/></g></g></g><g fill="#f0f0f0" fill-opacity="1"><g transform="translate(156.915052, 405.220064)"><g><path d="M 48.3125 -20.390625 L 48.3125 -19.328125 L 15.59375 -19.328125 C 16.207031 -16.535156 17.566406 -14.1875 19.671875 -12.28125 C 21.773438 -10.382812 24.476562 -9.4375 27.78125 -9.4375 C 30.46875 -9.4375 32.9375 -9.851562 35.1875 -10.6875 C 37.445312 -11.53125 39.363281 -12.507812 40.9375 -13.625 L 46.1875 -4.265625 C 44.007812 -2.890625 41.375 -1.644531 38.28125 -0.53125 C 35.1875 0.582031 31.503906 1.140625 27.234375 1.140625 C 22.367188 1.140625 18.125 0.164062 14.5 -1.78125 C 10.875 -3.738281 8.054688 -6.46875 6.046875 -9.96875 C 4.046875 -13.46875 3.046875 -17.523438 3.046875 -22.140625 L 3.046875 -22.21875 C 3.046875 -26.78125 3.984375 -30.800781 5.859375 -34.28125 C 7.734375 -37.757812 10.367188 -40.484375 13.765625 -42.453125 C 17.171875 -44.429688 21.179688 -45.421875 25.796875 -45.421875 C 30.460938 -45.421875 34.484375 -44.421875 37.859375 -42.421875 C 41.234375 -40.421875 43.816406 -37.554688 45.609375 -33.828125 C 47.410156 -30.097656 48.3125 -25.617188 48.3125 -20.390625 Z M 25.71875 -35.609375 C 23.082031 -35.609375 20.890625 -34.769531 19.140625 -33.09375 C 17.390625 -31.425781 16.234375 -29.320312 15.671875 -26.78125 L 36 -26.78125 C 35.539062 -29.320312 34.445312 -31.425781 32.71875 -33.09375 C 31 -34.769531 28.664062 -35.609375 25.71875 -35.609375 Z M 25.71875 -35.609375 "/></g></g></g><g fill="#f0f0f0" fill-opacity="1"><g transform="translate(210.551429, 405.220064)"><g><path d="M 47.25 -41.25 L 47.25 16.734375 L 35.15625 16.734375 L 35.15625 -0.078125 C 33.832031 0.273438 32.484375 0.566406 31.109375 0.796875 C 29.742188 1.023438 28.328125 1.140625 26.859375 1.140625 C 21.941406 1.140625 17.707031 0.140625 14.15625 -1.859375 C 10.601562 -3.867188 7.875 -6.625 5.96875 -10.125 C 4.070312 -13.625 3.125 -17.578125 3.125 -21.984375 L 3.125 -22.140625 C 3.125 -26.609375 4.113281 -30.59375 6.09375 -34.09375 C 8.070312 -37.59375 10.875 -40.351562 14.5 -42.375 C 18.125 -44.40625 22.421875 -45.421875 27.390625 -45.421875 C 31.453125 -45.421875 35.117188 -44.988281 38.390625 -44.125 C 41.660156 -43.269531 44.613281 -42.3125 47.25 -41.25 Z M 27.390625 -9.65625 C 28.710938 -9.65625 30.046875 -9.78125 31.390625 -10.03125 C 32.734375 -10.289062 33.988281 -10.570312 35.15625 -10.875 L 35.15625 -33.703125 C 32.820312 -34.316406 30.234375 -34.625 27.390625 -34.625 C 23.429688 -34.625 20.425781 -33.429688 18.375 -31.046875 C 16.320312 -28.660156 15.296875 -25.691406 15.296875 -22.140625 L 15.296875 -21.984375 C 15.296875 -18.484375 16.320312 -15.550781 18.375 -13.1875 C 20.425781 -10.832031 23.429688 -9.65625 27.390625 -9.65625 Z M 27.390625 -9.65625 "/></g></g></g><g fill="#f0f0f0" fill-opacity="1"><g transform="translate(264.111725, 405.220064)"><g><path d="M 10.125 -49.390625 C 8.5 -49.390625 7.085938 -49.816406 5.890625 -50.671875 C 4.703125 -51.535156 4.109375 -52.882812 4.109375 -54.71875 C 4.109375 -56.332031 4.675781 -57.609375 5.8125 -58.546875 C 6.957031 -59.492188 8.394531 -59.96875 10.125 -59.96875 C 11.894531 -59.96875 13.335938 -59.492188 14.453125 -58.546875 C 15.566406 -57.609375 16.125 -56.332031 16.125 -54.71875 C 16.125 -52.882812 15.539062 -51.535156 14.375 -50.671875 C 13.207031 -49.816406 11.789062 -49.390625 10.125 -49.390625 Z M 16.203125 0 L 4.109375 0 L 4.109375 -43.671875 L 16.203125 -43.671875 Z M 16.203125 0 "/></g></g></g><g fill="#f0f0f0" fill-opacity="1"><g transform="translate(286.631564, 405.220064)"><g><path d="M 24.5 -45.203125 C 28.5625 -45.203125 32.085938 -44.65625 35.078125 -43.5625 C 38.066406 -42.46875 40.382812 -40.664062 42.03125 -38.15625 C 43.6875 -35.644531 44.515625 -32.234375 44.515625 -27.921875 L 44.515625 -0.90625 C 41.523438 -0.25 38.226562 0.265625 34.625 0.640625 C 31.019531 1.023438 27.722656 1.21875 24.734375 1.21875 C 20.265625 1.21875 16.40625 0.765625 13.15625 -0.140625 C 9.914062 -1.054688 7.421875 -2.554688 5.671875 -4.640625 C 3.921875 -6.722656 3.046875 -9.460938 3.046875 -12.859375 L 3.046875 -13.015625 C 3.046875 -17.679688 4.796875 -21.101562 8.296875 -23.28125 C 11.796875 -25.46875 16.539062 -26.5625 22.53125 -26.5625 C 24.144531 -26.5625 25.75 -26.519531 27.34375 -26.4375 C 28.945312 -26.363281 30.640625 -26.203125 32.421875 -25.953125 L 32.421875 -27.546875 C 32.421875 -30.285156 31.503906 -32.210938 29.671875 -33.328125 C 27.847656 -34.441406 25.265625 -35 21.921875 -35 C 19.734375 -35 17.21875 -34.734375 14.375 -34.203125 C 11.539062 -33.671875 8.929688 -32.921875 6.546875 -31.953125 L 9.203125 -42.6875 C 10.316406 -43.144531 11.710938 -43.5625 13.390625 -43.9375 C 15.066406 -44.320312 16.878906 -44.628906 18.828125 -44.859375 C 20.785156 -45.085938 22.675781 -45.203125 24.5 -45.203125 Z M 15.453125 -13.625 L 15.453125 -13.46875 C 15.453125 -11.59375 16.300781 -10.25 18 -9.4375 C 19.695312 -8.625 22.09375 -8.21875 25.1875 -8.21875 C 27.320312 -8.21875 29.734375 -8.421875 32.421875 -8.828125 L 32.421875 -18.265625 C 31.203125 -18.460938 29.929688 -18.613281 28.609375 -18.71875 C 27.285156 -18.820312 26.144531 -18.875 25.1875 -18.875 C 22.144531 -18.875 19.757812 -18.476562 18.03125 -17.6875 C 16.3125 -16.90625 15.453125 -15.550781 15.453125 -13.625 Z M 15.453125 -13.625 "/></g></g></g><g clip-path="url(#bbc3ccc202)"><g clip-path="url(#8ca761ce05)"><g transform="matrix(1, 0, 0, 1, 113, 0)"><g clip-path="url(#e7c1b32737)"><g clip-path="url(#3e78660165)"><g clip-path="url(#da8124b6ff)"><path fill="#f0f0f0" d="M 0.695312 0 L 157.28125 0 L 157.28125 218.972656 L 0.695312 218.972656 Z M 0.695312 0 " fill-opacity="1" fill-rule="nonzero"/></g></g></g></g></g></g></svg>